<?xml version="1.0" encoding="utf-8"?>
<!-- Generator: Adobe Illustrator 21.0.0, SVG Export Plug-In . SVG Version: 6.00 Build 0)  -->
<!DOCTYPE svg PUBLIC "-//W3C//DTD SVG 1.0//EN" "http://www.w3.org/TR/2001/REC-SVG-20010904/DTD/svg10.dtd">
<svg version="1.0" id="Layer_1" xmlns="http://www.w3.org/2000/svg" xmlns:xlink="http://www.w3.org/1999/xlink" x="0px" y="0px"
	 viewBox="0 0 531.132 151.887" style="enable-background:new 0 0 531.132 151.887;" xml:space="preserve">
<g>
	<path d="M445.414,27.891c-6.778,0-13.564,3.677-15.263,10.74c-0.562,3.108,0,9.047,0,9.047l11.024,69.253h6.501l11.593-72.645
		c0.284-2.824,0.284-4.523-0.569-7.632C457.007,30.999,451.068,27.891,445.414,27.891z"/>
	<path d="M505.23,36.653c-1.693-5.654-7.916-8.762-13.57-8.762c-6.785,0-13.286,3.677-14.979,10.74c-0.846,3.108,0,9.047,0,9.047
		l11.024,69.253h6.501l11.308-72.645C505.792,41.461,506.077,39.761,505.23,36.653z"/>
	<path d="M275.861,27.891c-6.785,0-13.57,3.677-15.263,10.74c-0.569,3.108,0,9.047,0,9.047l11.024,69.253h6.501l11.586-72.645
		c0.284-2.824,0.284-4.523-0.562-7.632C287.453,30.999,281.515,27.891,275.861,27.891z"/>
	<path d="M102.462,41.766c-4.166-4.16-8.987-7.42-14.476-9.801c-5.495-2.374-11.355-3.565-17.591-3.565s-12.175,1.19-17.809,3.565
		c-5.648,2.381-10.541,5.641-14.694,9.801c-4.166,4.16-7.427,8.981-9.801,14.47c-2.381,5.496-3.564,11.355-3.564,17.591
		c0,6.236,1.184,12.102,3.564,17.591c2.374,5.496,5.634,10.317,9.801,14.47c4.153,4.16,8.974,7.427,14.47,9.801
		c5.489,2.381,11.355,3.558,17.591,3.558c6.236,0,12.168-1.177,17.809-3.558c5.641-2.374,10.535-5.641,14.701-9.801
		c4.153-4.153,7.413-8.974,9.794-14.47c2.374-5.489,3.565-11.355,3.565-17.591c0-6.236-1.19-12.095-3.565-17.591
		C109.876,50.747,106.615,45.926,102.462,41.766z M89.322,92.753c-5.198,5.198-11.652,7.79-19.37,7.79
		c-7.427,0-13.736-2.592-18.927-7.79c-5.198-5.191-7.79-11.5-7.79-18.927c0-7.42,2.592-13.729,7.79-18.927
		c5.191-5.191,11.646-7.79,19.37-7.79c7.42,0,13.729,2.599,18.927,7.79c5.191,5.198,7.797,11.507,7.797,18.927
		C97.119,81.253,94.513,87.562,89.322,92.753z"/>
</g>
</svg>
